<svg xmlns="http://www.w3.org/2000/svg" viewBox="0 0 64 64">
  <defs>
    <linearGradient id="sky" x1="0" y1="0" x2="0" y2="1">
      <stop offset="0%" stop-color="#b7d3ea" />
      <stop offset="100%" stop-color="#eff5fa" />
    </linearGradient>
  </defs>
  <rect width="64" height="64" rx="14" fill="url(#sky)" />
  <rect x="8" y="46" width="48" height="10" rx="5" fill="#b7c39a" />
  <rect x="16" y="28" width="32" height="20" rx="2" fill="#ffffff" />
  <polygon points="32,13 12,29 52,29" fill="#f8fbff" />
  <rect x="20" y="32" width="5" height="8" rx="1" fill="#3c5f92" />
  <rect x="39" y="32" width="5" height="8" rx="1" fill="#3c5f92" />
  <rect x="29" y="35" width="6" height="13" rx="1" fill="#8a5a3b" />
  <rect x="15" y="27" width="34" height="2" fill="#dbe5ef" />
  <path d="M11 47c8-5 15-6 23-2 8-4 14-3 20 1" stroke="#94a67f" stroke-width="2" fill="none" />
    <linearGradient id="bg" x1="0" y1="0" x2="0" y2="1">
      <stop offset="0%" stop-color="#60a5fa" />
      <stop offset="100%" stop-color="#22d3ee" />
    </linearGradient>
  </defs>
  <rect width="64" height="64" rx="14" fill="url(#bg)" />
  <ellipse cx="31" cy="54" rx="19" ry="5" fill="#f0ab53" opacity="0.9" />
  <path d="M31 52c2-11 2-18 1-25" stroke="#6b4f2a" stroke-width="3.5" stroke-linecap="round" />
  <path d="M32 22c6-6 14-4 18 0-8 1-11 4-14 9" fill="#22c55e" />
  <path d="M31 23c-7-5-14-2-18 2 8 1 11 4 14 9" fill="#16a34a" />
  <path d="M31 25c-2-8-8-11-13-12 2 7 4 12 10 15" fill="#4ade80" />
  <path d="M33 25c4-7 11-9 16-9-2 7-5 12-12 14" fill="#4ade80" />
</svg>
